grf
version=1
nRows=12
nColumns=37
inDegrees=no
endheader
time	ground_force_1_vx	ground_force_1_vy	ground_force_1_vz	ground_force_1_px	ground_force_1_py	ground_force_1_pz	ground_moment_1_mx	ground_moment_1_my	ground_moment_1_mz	ground_force_2_vx	ground_force_2_vy	ground_force_2_vz	ground_force_2_px	ground_force_2_py	ground_force_2_pz	ground_moment_2_mx	ground_moment_2_my	ground_moment_2_mz	ground_force_3_vx	ground_force_3_vy	ground_force_3_vz	ground_force_3_px	ground_force_3_py	ground_force_3_pz	ground_moment_3_mx	ground_moment_3_my	ground_moment_3_mz	ground_force_4_vx	ground_force_4_vy	ground_force_4_vz	ground_force_4_px	ground_force_4_py	ground_force_4_pz	ground_moment_4_mx	ground_moment_4_my	ground_moment_4_mz
      3.91000000	      0.00000000	     -0.00000000	      0.00000000	      0.00000000	      0.00000000	      0.00000000	      0.00000000	      0.00000000	      0.00000000	     -3.20066857	     61.34351730	   -493.60833740	   -270.79660341	  -1189.95251196	      0.00000000	      0.00000000	      0.00000000	   8351.30930977	      3.10487181	    -64.72782162	   -508.15762329	   -285.24407568	   -604.32268859	      0.00000000	      0.00000000	     -0.00000000	  -8251.45032121	      0.00000000	     -0.00000000	      0.00000000	      0.00000000	      0.00000000	      0.00000000	      0.00000000	      0.00000000	      0.00000000
      3.92000000	      0.00000000	     -0.00000000	      0.00000000	      0.00000000	      0.00000000	      0.00000000	      0.00000000	      0.00000000	      0.00000000	     -3.61444736	     61.93484497	   -494.84783936	   -271.33522860	  -1190.13221036	      0.00000000	      0.00000000	      0.00000000	   8594.48687323	      2.94468386	    -64.68048884	   -509.10995483	   -285.05978363	   -603.81631018	      0.00000000	      0.00000000	     -0.00000000	  -8392.17900905	      0.00000000	     -0.00000000	      0.00000000	      0.00000000	      0.00000000	      0.00000000	      0.00000000	      0.00000000	      0.00000000
      3.93000000	      0.00000000	     -0.00000000	      0.00000000	      0.00000000	      0.00000000	      0.00000000	      0.00000000	      0.00000000	      0.00000000	     -3.86807036	     62.19853592	   -496.13333130	   -269.84307933	  -1189.82119051	      0.00000000	      0.00000000	      0.00000000	   8459.47235840	      2.49568686	    -64.38650535	   -510.92593384	   -284.87922297	   -604.07538517	      0.00000000	      0.00000000	     -0.00000000	  -8281.18332233	      0.00000000	     -0.00000000	      0.00000000	      0.00000000	      0.00000000	      0.00000000	      0.00000000	      0.00000000	      0.00000000
      3.94000000	      0.00000000	     -0.00000000	      0.00000000	      0.00000000	      0.00000000	      0.00000000	      0.00000000	      0.00000000	      0.00000000	     -3.90996718	     62.65867615	   -501.45068359	   -270.74361983	  -1191.59248411	      0.00000000	      0.00000000	      0.00000000	   8457.94251239	      2.68467295	    -64.09829735	   -509.41223145	   -284.83766223	   -604.71470513	      0.00000000	      0.00000000	     -0.00000000	  -8299.30940373	      0.00000000	     -0.00000000	      0.00000000	      0.00000000	      0.00000000	      0.00000000	      0.00000000	      0.00000000	      0.00000000
      3.95000000	      0.00000000	     -0.00000000	      0.00000000	      0.00000000	      0.00000000	      0.00000000	      0.00000000	      0.00000000	      0.00000000	     -4.23477221	     62.94698334	   -498.81442261	   -270.03532607	  -1189.77893866	      0.00000000	      0.00000000	      0.00000000	   8292.25841107	      2.80397477	    -63.86811853	   -510.36843872	   -284.60981824	   -604.31609248	      0.00000000	      0.00000000	     -0.00000000	  -8400.61096874	      0.00000000	     -0.00000000	      0.00000000	      0.00000000	      0.00000000	      0.00000000	      0.00000000	      0.00000000	      0.00000000
      3.96000000	      0.00000000	     -0.00000000	      0.00000000	      0.00000000	      0.00000000	      0.00000000	      0.00000000	      0.00000000	      0.00000000	     -4.85479689	     62.95710373	   -500.06179810	   -269.41156772	  -1191.21934203	      0.00000000	      0.00000000	      0.00000000	   8378.40641947	      2.97025887	    -63.59996059	   -510.15570068	   -284.39784509	   -604.41353670	      0.00000000	      0.00000000	     -0.00000000	  -8342.26775612	      0.00000000	     -0.00000000	      0.00000000	      0.00000000	      0.00000000	      0.00000000	      0.00000000	      0.00000000	      0.00000000
      3.97000000	      0.00000000	     -0.00000000	      0.00000000	      0.00000000	      0.00000000	      0.00000000	      0.00000000	      0.00000000	      0.00000000	     -4.32303476	     63.61132050	   -501.94973755	   -269.38050153	  -1190.76133107	      0.00000000	      0.00000000	      0.00000000	   8488.18046473	      3.01616118	    -62.97336605	   -508.06030273	   -283.67553917	   -604.72010099	      0.00000000	      0.00000000	     -0.00000000	  -8266.52072627	      0.00000000	     -0.00000000	      0.00000000	      0.00000000	      0.00000000	      0.00000000	      0.00000000	      0.00000000	      0.00000000
      3.98000000	      0.00000000	     -0.00000000	      0.00000000	      0.00000000	      0.00000000	      0.00000000	      0.00000000	      0.00000000	      0.00000000	     -4.79712868	     64.20422363	   -502.88815308	   -268.97301628	  -1190.60326626	      0.00000000	      0.00000000	      0.00000000	   8407.00747580	      3.60341646	    -62.55413468	   -508.44848633	   -283.99402673	   -604.05467811	      0.00000000	      0.00000000	     -0.00000000	  -8299.30815984	      0.00000000	     -0.00000000	      0.00000000	      0.00000000	      0.00000000	      0.00000000	      0.00000000	      0.00000000	      0.00000000
      3.99000000	      0.00000000	     -0.00000000	      0.00000000	      0.00000000	      0.00000000	      0.00000000	      0.00000000	      0.00000000	      0.00000000	     -4.70704746	     64.68968201	   -503.08291626	   -269.59725317	  -1190.68199398	      0.00000000	      0.00000000	      0.00000000	   8522.06217585	      4.18055184	    -61.93570746	   -507.18566895	   -283.33305360	   -603.47464672	      0.00000000	      0.00000000	     -0.00000000	  -8109.73194351	      0.00000000	     -0.00000000	      0.00000000	      0.00000000	      0.00000000	      0.00000000	      0.00000000	      0.00000000	      0.00000000
      4.00000000	      0.00000000	     -0.00000000	      0.00000000	      0.00000000	      0.00000000	      0.00000000	      0.00000000	      0.00000000	      0.00000000	     -4.62903070	     65.42172241	   -504.06616211	   -268.47886160	  -1190.70111810	      0.00000000	      0.00000000	      0.00000000	   8436.67157489	      4.52424462	    -61.86913721	   -503.73892212	   -282.83672890	   -603.72659858	      0.00000000	      0.00000000	     -0.00000000	  -8181.97836077	      0.00000000	     -0.00000000	      0.00000000	      0.00000000	      0.00000000	      0.00000000	      0.00000000	      0.00000000	      0.00000000
      4.01000000	      0.00000000	     -0.00000000	      0.00000000	      0.00000000	      0.00000000	      0.00000000	      0.00000000	      0.00000000	      0.00000000	     -3.84476662	     65.80867004	   -503.47952271	   -268.80607991	  -1191.36234755	      0.00000000	      0.00000000	      0.00000000	   8457.22626012	      4.92274794	    -61.74773069	   -501.29580688	   -282.78373103	   -604.03184172	      0.00000000	      0.00000000	     -0.00000000	  -8113.25103172	      0.00000000	     -0.00000000	      0.00000000	      0.00000000	      0.00000000	      0.00000000	      0.00000000	      0.00000000	      0.00000000
      4.02000000	      0.00000000	     -0.00000000	      0.00000000	      0.00000000	      0.00000000	      0.00000000	      0.00000000	      0.00000000	      0.00000000	     -3.83605194	     66.06496429	   -501.03906250	   -268.53914326	  -1190.73743627	      0.00000000	      0.00000000	      0.00000000	   8323.84906538	      5.17762645	    -61.79291580	   -500.24926758	   -281.77320554	   -602.95481074	      0.00000000	      0.00000000	     -0.00000000	  -8024.10141170	      0.00000000	     -0.00000000	      0.00000000	      0.00000000	      0.00000000	      0.00000000	      0.00000000	      0.00000000	      0.00000000
